/* XPM */
static char * hennie_xpm[] = {
"48 20 437 2",
"  	c None",
". 	c #DCD9D9",
"+ 	c #DBD8D8",
"@ 	c #DAADBC",
"# 	c #DBB7C3",
"$ 	c #DBCACF",
"% 	c #DBD3D5",
"& 	c #DA93AB",
"* 	c #D72765",
"= 	c #D6054F",
"- 	c #D60650",
"; 	c #D61157",
"> 	c #D85885",
", 	c #D98BA6",
"' 	c #DBD4D6",
") 	c #DBD2D4",
"! 	c #D84A7C",
"~ 	c #D60E55",
"{ 	c #D8678F",
"] 	c #DA95AD",
"^ 	c #DA9DB2",
"/ 	c #D981A0",
"( 	c #D7346E",
"_ 	c #D7336D",
": 	c #DBC9CF",
"< 	c #D2D0D3",
"[ 	c #ADAEBB",
"} 	c #BCBCC4",
"| 	c #D85080",
"1 	c #D85583",
"2 	c #DBC6CC",
"3 	c #D8668E",
"4 	c #D73A72",
"5 	c #DBD7D7",
"6 	c #161616",
"7 	c #9B9999",
"8 	c #C0BDBD",
"9 	c #B3B4C2",
"0 	c #C2C0C7",
"a 	c #D7D4D5",
"b 	c #DAD7D7",
"c 	c #DAD7D8",
"d 	c #D86B91",
"e 	c #D97195",
"f 	c #D9D3D5",
"g 	c #D9A2B5",
"h 	c #D60B53",
"i 	c #DA92AB",
"j 	c #D73F75",
"k 	c #D61559",
"l 	c #DAA1B5",
"m 	c #2F2E2E",
"n 	c #535252",
"o 	c #B0ADAD",
"p 	c #BABDCE",
"q 	c #B7B7C4",
"r 	c #CDCBD0",
"s 	c #BAB8BD",
"t 	c #B4B2B6",
"u 	c #BEBCC0",
"v 	c #C3C2C7",
"w 	c #D84F7F",
"x 	c #BCB6C0",
"y 	c #D22563",
"z 	c #D67B9C",
"A 	c #DAD8D8",
"B 	c #DA9BB1",
"C 	c #D988A4",
"D 	c #DAA4B6",
"E 	c #DAA5B7",
"F 	c #D61A5D",
"G 	c #DBC5CC",
"H 	c #1A1A1B",
"I 	c #5A5959",
"J 	c #D3D0D0",
"K 	c #B9B6B6",
"L 	c #CFCCCC",
"M 	c #CACCDD",
"N 	c #C6C8D8",
"O 	c #B5B7C6",
"P 	c #AAAAB5",
"Q 	c #ACACB2",
"R 	c #C7C6CA",
"S 	c #D7D6D9",
"T 	c #D7D3D3",
"U 	c #D2A6BC",
"V 	c #D41157",
"W 	c #BFB3C1",
"X 	c #D8D5D7",
"Y 	c #DAABBB",
"Z 	c #D60A52",
"` 	c #DBC7CD",
" .	c #000000",
"..	c #010101",
"+.	c #BDBBBB",
"@.	c #A4A2A2",
"#.	c #1F1E1E",
"$.	c #2A2929",
"%.	c #1E1D1D",
"&.	c #B2B3BD",
"*.	c #545458",
"=.	c #101011",
"-.	c #6B6B6F",
";.	c #D8D7DA",
">.	c #4F4D4D",
",.	c #3C3B3B",
"'.	c #BCBABA",
").	c #DC92AE",
"!.	c #D54C7F",
"~.	c #C7C8D3",
"{.	c #C4C4CE",
"].	c #D2D0D4",
"^.	c #D9D1D3",
"/.	c #DBD0D3",
"(.	c #D60851",
"_.	c #DBB6C2",
":.	c #565557",
"<.	c #CCCCD6",
"[.	c #37383B",
"}.	c #28282A",
"|.	c #191919",
"1.	c #878585",
"2.	c #3D3C3C",
"3.	c #D0D1D8",
"4.	c #D0CFD2",
"5.	c #494849",
"6.	c #353435",
"7.	c #5B5A5A",
"8.	c #DB90AB",
"9.	c #D96690",
"0.	c #D3D4DC",
"a.	c #C3C5D2",
"b.	c #B5B5C3",
"c.	c #C2AAB9",
"d.	c #D37D9D",
"e.	c #DBD6D7",
"f.	c #D72B68",
"g.	c #919091",
"h.	c #D1D2DA",
"i.	c #4E4E53",
"j.	c #232325",
"k.	c #9E9C9C",
"l.	c #848383",
"m.	c #A3A1A1",
"n.	c #454444",
"o.	c #DBDBE0",
"p.	c #B9B9BF",
"q.	c #393839",
"r.	c #CD829F",
"s.	c #D46B91",
"t.	c #DAD9DB",
"u.	c #D8D7DD",
"v.	c #C9CAD4",
"w.	c #B6B3C2",
"x.	c #C94D7D",
"y.	c #D8D6D7",
"z.	c #DBCDD1",
"A.	c #D9799B",
"B.	c #D9809F",
"C.	c #989898",
"D.	c #D8D8DF",
"E.	c #525357",
"F.	c #929090",
"G.	c #414040",
"H.	c #525151",
"I.	c #D9D9E0",
"J.	c #ABADBA",
"K.	c #4A494A",
"L.	c #3C3C3D",
"M.	c #787777",
"N.	c #BC7F9F",
"O.	c #CA4276",
"P.	c #BDBDC5",
"Q.	c #C5C5CB",
"R.	c #CCCCD4",
"S.	c #C4BAC9",
"T.	c #CC6A92",
"U.	c #D892AA",
"V.	c #DA94AC",
"W.	c #9A9898",
"X.	c #E0DFE2",
"Y.	c #58585B",
"Z.	c #252528",
"`.	c #A3A0A0",
" +	c #959495",
".+	c #D5D3D7",
"++	c #CFD0D9",
"@+	c #B2B4C1",
"#+	c #504F50",
"$+	c #3E3D3E",
"%+	c #D4D2D7",
"&+	c #BBA4BA",
"*+	c #D11E60",
"=+	c #B7B7C5",
"-+	c #B4B5C1",
";+	c #BFC0CA",
">+	c #C0C1CE",
",+	c #C0B1C3",
"'+	c #D05986",
")+	c #D65F8A",
"!+	c #D96C92",
"~+	c #D982A0",
"{+	c #C0C1CD",
"]+	c #979797",
"^+	c #E5E3E4",
"/+	c #59595B",
"(+	c #272729",
"_+	c #B9BAC5",
":+	c #272728",
"<+	c #2E2E2F",
"[+	c #BFBFC3",
"}+	c #D7D7DC",
"|+	c #4E4E4E",
"1+	c #3C3C3C",
"2+	c #BFBFC6",
"3+	c #BEBFCA",
"4+	c #D22B69",
"5+	c #D04E82",
"6+	c #B9BBCB",
"7+	c #B9BCCC",
"8+	c #BABDCD",
"9+	c #B4B7C9",
"0+	c #ADAFBF",
"a+	c #D0B5C1",
"b+	c #DBC3CB",
"c+	c #B2B3BE",
"d+	c #19191A",
"e+	c #929192",
"f+	c #E3E1E2",
"g+	c #605F60",
"h+	c #323233",
"i+	c #C8C9D2",
"j+	c #AEAEB2",
"k+	c #3A3A3B",
"l+	c #080708",
"m+	c #0B0B0B",
"n+	c #4E4D4D",
"o+	c #3F3E3F",
"p+	c #6B6A6B",
"q+	c #C4C5D1",
"r+	c #CE84A5",
"s+	c #D5165B",
"t+	c #C4C1D1",
"u+	c #BBBDCE",
"v+	c #BABCCE",
"w+	c #B8BBCC",
"x+	c #B5B8C8",
"y+	c #D2D1D4",
"z+	c #CBCCD7",
"A+	c #D5D4DC",
"B+	c #D5D3D6",
"C+	c #D4D3D7",
"D+	c #DAD9DC",
"E+	c #DFDEE1",
"F+	c #DAD9DD",
"G+	c #D0CFD4",
"H+	c #DEDDDF",
"I+	c #E6E5E4",
"J+	c #D4D3D8",
"K+	c #C9CAD3",
"L+	c #D4D4D9",
"M+	c #D4D2D9",
"N+	c #D43671",
"O+	c #CC79A1",
"P+	c #BABCC9",
"Q+	c #BCBDC8",
"R+	c #C1C2CE",
"S+	c #C0C2D3",
"T+	c #C7C8D2",
"U+	c #D4D2D6",
"V+	c #E2E0E1",
"W+	c #D4D2D5",
"X+	c #C2C1C7",
"Y+	c #B6B6BE",
"Z+	c #B8B7BE",
"`+	c #C8C8CD",
" @	c #D8D7D9",
".@	c #DCDBDD",
"+@	c #E0DFE0",
"@@	c #CDCED9",
"#@	c #D4D3DB",
"$@	c #D2D1D5",
"%@	c #CCCCD2",
"&@	c #CECED6",
"*@	c #D8D8DE",
"=@	c #E1E0E2",
"-@	c #DBDADC",
";@	c #CFD0D8",
">@	c #E1DFE1",
",@	c #DDDDE1",
"'@	c #D6C1D0",
")@	c #D32365",
"!@	c #BD99B2",
"~@	c #BABAC5",
"{@	c #C5C5CC",
"]@	c #CCCDD7",
"^@	c #C4C6D4",
"/@	c #CDCDD5",
"(@	c #D9D7D7",
"_@	c #BFBFC5",
":@	c #BBBBC3",
"<@	c #CFCED2",
"[@	c #D5D4D6",
"}@	c #CDCDD2",
"|@	c #CECED4",
"1@	c #D8D8DB",
"2@	c #E5E4E4",
"3@	c #DFDDDE",
"4@	c #C6C7CD",
"5@	c #BCBBC2",
"6@	c #C2C1C5",
"7@	c #D2D0D2",
"8@	c #DFDDDF",
"9@	c #DBDADD",
"0@	c #DCDADD",
"a@	c #DFDDE0",
"b@	c #E0DFE3",
"c@	c #DCDBDF",
"d@	c #D2D2D9",
"e@	c #D8D7DE",
"f@	c #DDDCDE",
"g@	c #CFCFD4",
"h@	c #C8C8D0",
"i@	c #DDDCE0",
"j@	c #E3E2E4",
"k@	c #E2E1E4",
"l@	c #DCDCE3",
"m@	c #D0B7CC",
"n@	c #D02E6C",
"o@	c #BD8AA8",
"p@	c #BBBCC6",
"q@	c #CACAD0",
"r@	c #CFCFD8",
"s@	c #C5C6D4",
"t@	c #C1C3CF",
"u@	c #CBCAD0",
"v@	c #B7B8C2",
"w@	c #C4C4CB",
"x@	c #D3D2D4",
"y@	c #C9C9CD",
"z@	c #C0C1CB",
"A@	c #C6C7D2",
"B@	c #D7D6DD",
"C@	c #E7E5E5",
"D@	c #E6E4E4",
"E@	c #E2E1E2",
"F@	c #C4C3C9",
"G@	c #BCBCC2",
"H@	c #C4C4C8",
"I@	c #D8D6D8",
"J@	c #E1E0E0",
"K@	c #E2E0E2",
"L@	c #DFDFE3",
"M@	c #DEDEE4",
"N@	c #E0DFE4",
"O@	c #DFDFE2",
"P@	c #DFDFE1",
"Q@	c #CECDD1",
"R@	c #C0C0C8",
"S@	c #C2C2CD",
"T@	c #D4D4DF",
"U@	c #DFDEE4",
"V@	c #E4E3E5",
"W@	c #E4E3E4",
"X@	c #DFDEE3",
"Y@	c #D1CBD8",
"Z@	c #CA6C96",
"`@	c #C6608C",
" #	c #BCABB9",
".#	c #C2C2C9",
"+#	c #C5C5CE",
"@#	c #C0C2CE",
"##	c #BABCCA",
"$#	c #B3B4C0",
"%#	c #C0C1C9",
"&#	c #CCCCD1",
"*#	c #CDCCD1",
"=#	c #BDBEC6",
"-#	c #C6C7D6",
";#	c #D8D8E0",
">#	c #E3E2E3",
",#	c #DCDCE0",
"'#	c #B6B7C1",
")#	c #B4B4BC",
"!#	c #C5C5C9",
"~#	c #D9D8DA",
"{#	c #DEDDE2",
"]#	c #DBDCE4",
"^#	c #D9DAE5",
"/#	c #DFDFE5",
"(#	c #BABAC2",
"_#	c #BEBFCB",
":#	c #D1D2DE",
"<#	c #DDDDE4",
"[#	c #E6E5E5",
"}#	c #D7D7DD",
"|#	c #C6C7D5",
"1#	c #B8B9C9",
"2#	c #B6A0B4",
"3#	c #B9B0BB",
"4#	c #BEBEC7",
"5#	c #BDBECA",
"6#	c #BDBFC8",
"7#	c #C1C2CA",
"8#	c #BFBFC7",
"9#	c #B5B6BF",
"0#	c #AFB1BE",
"a#	c #B8BAC8",
"b#	c #C6C8D3",
"c#	c #D3D3DA",
"d#	c #DCDBDE",
"e#	c #D7D6DA",
"f#	c #CFCFD5",
"g#	c #C5C6D0",
"h#	c #B7B9C8",
"i#	c #AAADBD",
"j#	c #A7A9B7",
"k#	c #B3B4BC",
"l#	c #C7C7CC",
"m#	c #D5D5DA",
"n#	c #D9DAE2",
"o#	c #D7D8E3",
"p#	c #E3E3E5",
"q#	c #E2E1E1",
"r#	c #D5D4D5",
"s#	c #BEBDC2",
"t#	c #B4B4BE",
"u#	c #BBBDC9",
"v#	c #CFD0DB",
"w#	c #DDDCDD",
"x#	c #C3C3CC",
"y#	c #B6B7C3",
"z#	c #ADAEBC",
"A#	c #A9AAB9",
"B#	c #AAACB9",
"C#	c #AAACBB",
"D#	c #A9ACBB",
". . . . . . . . . . . . . . . . . . . . . . . . . . . . . . . . . . . . . . + @ # $ % . . . . . ",
". . . . . . . . . . . . . . . . . . . . . . . . . . . . . . . . . . . . . & * = - = ; > , ' . . ",
". . . . . . . . . . . . . . . . . . . . . . . . . . . . . . . . . . . ) ! = ~ { ] ^ / ( = _ : . ",
". . . . . . . . . . . . . . . . . . . . . . . < [ } < + . . . . . . . | = 1 2 . . . . + 3 = 4 5 ",
". 6 7 . . 6 8 . . . . 9 0 a b b b c 0 a b b b c d e 9 0 a b b b c f g h i . . . . . . . + j k l ",
". m n . . m o . . . . p q r s t u v q r s t u v w 1 p q r s t u v x y z A . . . B C D ' . E F G ",
". H I . J H K . + L + M N O P Q R S N O P Q R S 5 T M N O P Q R S U V W X . . ] Y . . % . ) Z ` ",
".  ... ... .+.@.#.$.%.&.H *.=...-.;.H *.=...-.;.>.,.&.@.#.$.%.'.;.).!.~.{.].^./ . . . + /.. (._.",
".  .:.<.[.}.+.|.1.. 2.3. .:.<.[.}.4. .:.<.[.}.4.5.6.3.|.1.. 2.7.4.8.9.0.a.b.c.d.c . . e.. /.f.% ",
".  .g.h.i.j.k. .l.m.n.o. .g.h.i.j.p. .g.h.i.j.p.5.q.o. .l.m.n.2.p.r.s.t.u.v.w.x.y.e.` z.. A.B.e.",
".  .C.D.E.j.F. .G.H.H.I. .C.D.E.j.J. .C.D.E.j.J.K.L.I. .G.H.H.M.J.N.O.P.Q.R.S.T.U.. e.+ V.> . . ",
".  .W.X.Y.Z.`. . +< .+++ .W.X.Y.Z.@+ .W.X.Y.Z.@+#+$+++ . +< .+%+@+&+*+=+-+;+>+,+'+)+!+> ~+5 . . ",
"{+ .]+^+/+(+_+:+<+[+}+{+ .]+^+/+(+_+ .]+^+/+(+_+|+1+{+:+<+[+}+2+_+3+4+5+6+7+8+9+0+a+b+. . . . . ",
"c+d+e+f+g+h+i+j+k+l+m+c+d+e+f+g+h+i+d+e+f+g+h+i+n+o+c+j+k+l+m+p+i+q+r+s+t+u+v+w+x+y+. . . . . . ",
"z+A+B+C+D+E+F+G+H+^+I+z+A+B+C+D+E+F+A+B+C+D+E+F+J+K+z+A+B+C+D+E+F+L+M+N+O+P+Q+R+S+T+U+. . . . . ",
". V+W+X+Y+Z+`+ @t..@+@@@#@$@%@&@*@=@#@$@%@&@*@=@-@;@@@#@$@%@&@*@=@>@,@'@)@!@~@{@]@^@/@y.+ . . . ",
". . . (@_@:@<@[@}@|@1@2@I+3@W+4@5@6@7@8@9@0@a@b@c@L+d@e@f@g@h@/@i@j@k@l@m@n@o@p@q@r@s@t@u@. . . ",
". . . v@v@w@x@y@z@A@B@^+C@D@E@1@F@G@H@I@J@K@L@M@N@O@P@K@f+Q@R@S@T@U@V@W@X@Y@Z@`@ #.#+#@###. . . ",
". . . $#%#&#*#=###-#;#j@C@I+>#,#T+'#)#!#~#{#]#^#/#V@C@2@3@R (#_#:#<#V@[#>#}#|#1#2#3#} 4#5#. . . ",
". . . 6#7#8#9#0#a#b#c#F+d#e#f#g#h#i#j#k#l#m#n#o#<#p#C@q#r#s#t#u#v#c@+@w#y+x#y#z#A#B#C#D#D#. . . "};
